<?xml version="1.0" standalone="no"?>
<!DOCTYPE svg PUBLIC "-//W3C//DTD SVG 20010904//EN"
 "http://www.w3.org/TR/2001/REC-SVG-20010904/DTD/svg10.dtd">
<svg version="1.0" xmlns="http://www.w3.org/2000/svg"
 width="602.000000pt" height="716.000000pt" viewBox="0 0 602.000000 716.000000"
 preserveAspectRatio="xMidYMid meet">

<g transform="translate(0.000000,716.000000) scale(0.100000,-0.100000)"
fill="#000000" stroke="none">
<path d="M0 3580 l0 -3580 3010 0 3010 0 0 520 0 520 -185 0 c-102 0 -185 3
-185 6 0 4 16 24 36 46 38 43 39 59 7 141 l-15 37 -177 0 c-97 0 -181 -4 -187
-8 -13 -8 -34 -75 -34 -109 0 -12 16 -42 35 -67 l35 -46 -150 0 c-83 0 -150 4
-150 9 0 5 16 21 35 35 38 29 83 115 165 316 28 69 64 157 80 195 72 174 120
309 115 324 -2 9 -25 28 -50 43 -25 15 -45 32 -45 37 0 16 33 18 75 3 26 -9
60 -12 96 -8 l57 5 42 -102 c63 -151 117 -286 216 -537 74 -190 94 -231 127
-262 21 -21 42 -38 47 -38 7 0 10 1113 10 3050 l0 3050 -1492 -2 c-821 0
-1434 -4 -1363 -8 234 -13 515 -67 690 -132 373 -139 674 -333 935 -604 202
-209 319 -372 440 -613 210 -419 286 -789 260 -1266 -18 -329 -63 -515 -203
-842 -58 -136 -237 -429 -326 -533 -25 -30 -64 -77 -85 -105 -140 -178 -490
-454 -706 -556 -47 -22 -92 -44 -100 -49 -91 -57 -358 -149 -550 -190 -87 -18
-277 -47 -325 -48 -11 -1 -68 -4 -127 -8 -105 -7 -308 6 -413 27 -27 5 -68 12
-90 14 -98 12 -212 41 -363 91 -187 61 -234 82 -225 97 3 6 1 7 -5 3 -15 -9
-63 4 -56 15 3 5 -2 9 -11 9 -27 0 -99 41 -86 49 6 4 -3 8 -21 8 -17 0 -34 5
-36 11 -2 7 -8 12 -13 12 -11 0 -201 117 -266 163 -24 18 -90 71 -146 118 -92
77 -134 117 -277 269 -48 51 -170 213 -215 286 -97 160 -119 201 -194 367 -66
146 -136 386 -168 582 -26 156 -25 563 1 720 64 390 188 701 422 1055 151 230
425 493 689 662 350 223 787 365 1195 388 74 4 -523 8 -1327 8 l-1463 2 0
-3580z m5625 -1430 c14 -23 -122 -110 -170 -109 l-30 0 35 30 c86 74 149 104
165 79z m-4338 -150 l41 0 45 -112 c40 -101 115 -283 254 -613 53 -125 81
-169 129 -197 19 -11 31 -24 28 -29 -3 -5 -89 -9 -191 -9 l-185 0 37 41 c41
46 42 63 6 145 l-20 44 -183 -2 -183 -3 -11 -25 c-7 -14 -15 -44 -19 -67 -6
-38 -3 -45 29 -81 20 -22 36 -42 36 -46 0 -3 -70 -6 -155 -6 -85 0 -155 3
-155 6 0 3 21 25 48 49 58 52 119 179 241 500 23 61 60 152 82 203 21 52 39
101 39 111 0 19 -31 51 -67 70 -45 23 -26 34 45 28 37 -4 86 -7 109 -7z m1523
3 c0 -4 -22 -27 -49 -52 -49 -46 -49 -47 -56 -125 -4 -44 -4 -188 -1 -321 9
-270 0 -475 -19 -475 -27 0 -248 236 -559 598 -27 31 -52 59 -57 60 -5 2 -9
-118 -9 -271 0 -269 0 -275 23 -303 12 -16 33 -39 47 -51 l25 -22 -154 -1
-154 0 41 44 c26 28 43 58 48 83 4 21 8 184 8 363 1 367 1 369 -70 419 -24 18
-44 36 -44 42 0 5 49 9 113 9 l112 0 190 -221 c105 -122 211 -245 236 -273 26
-28 56 -62 68 -76 35 -43 40 -14 34 229 -6 249 -10 266 -68 304 -19 12 -35 25
-35 29 0 4 57 9 128 11 70 1 144 4 165 5 20 1 37 -1 37 -5z m545 -3 c17 0 29
-16 59 -81 35 -77 180 -440 261 -654 33 -88 45 -107 96 -157 33 -31 59 -59 59
-62 0 -3 -81 -6 -180 -6 -99 0 -180 3 -180 6 0 4 14 22 30 41 36 40 37 54 9
126 l-21 54 -134 7 c-74 4 -157 4 -183 0 l-49 -6 -17 -64 c-16 -61 -16 -65 1
-92 9 -15 26 -34 36 -43 10 -9 18 -19 18 -23 0 -3 -67 -6 -150 -6 -84 0 -150
4 -150 9 0 5 19 24 42 42 56 45 109 160 268 589 16 41 42 113 60 159 l32 85
-41 34 c-59 49 -54 56 36 48 42 -3 86 -6 98 -6z m1611 -60 l-56 -59 0 -333 c1
-183 5 -353 10 -378 6 -33 18 -53 44 -76 20 -17 36 -36 36 -43 0 -8 -50 -11
-175 -11 -96 0 -175 3 -175 7 0 4 14 22 32 40 25 26 33 45 39 91 10 80 11 502
1 502 -5 0 -25 -32 -46 -71 -20 -40 -66 -125 -102 -190 -36 -65 -85 -161 -110
-214 -24 -52 -49 -95 -54 -95 -5 0 -53 84 -105 188 -119 235 -187 355 -200
354 -6 -1 -11 -98 -13 -262 l-2 -260 35 -38 c19 -22 35 -42 35 -46 0 -3 -66
-6 -147 -6 l-148 0 47 43 c25 23 51 52 57 64 16 32 14 743 -2 763 -7 9 -29 29
-49 44 -21 16 -38 32 -38 37 0 11 67 11 163 2 l68 -6 56 -84 c30 -46 78 -128
107 -181 125 -238 162 -302 171 -299 6 2 53 89 106 193 53 104 119 226 147
272 28 46 53 89 55 95 2 8 45 14 128 17 68 3 128 3 132 2 5 -2 -17 -30 -47
-62z m-4450 49 c178 -33 294 -171 282 -338 -11 -146 -95 -230 -278 -277 -48
-12 -86 -15 -147 -10 l-83 6 0 -115 0 -115 40 -44 c22 -24 40 -46 40 -50 0 -3
-79 -6 -176 -6 l-176 0 36 41 c20 22 41 52 47 66 5 14 10 177 12 372 2 387 3
383 -69 437 -26 20 -32 29 -22 35 19 13 425 11 494 -2z m1311 -1212 c33 -22
63 -71 63 -102 0 -52 -92 -115 -168 -115 l-42 0 0 -50 0 -50 -35 0 -35 0 0
169 c0 195 -10 178 110 173 56 -3 83 -9 107 -25z m420 -1 c38 -24 57 -71 47
-112 -8 -34 -32 -64 -50 -64 -26 0 -22 -18 16 -71 49 -67 50 -80 8 -73 -33 6
-39 12 -91 78 -21 27 -35 36 -57 36 -30 0 -30 -1 -30 -55 l0 -55 -35 0 -35 0
0 169 c0 126 3 170 13 174 6 2 50 2 97 -1 65 -3 93 -9 117 -26z m688 -33 c32
-37 62 -75 68 -85 13 -19 37 -25 37 -8 0 21 93 150 112 156 39 12 46 -12 49
-181 l4 -160 -32 -3 -32 -3 -3 97 c-2 54 -7 99 -13 100 -5 2 -25 -18 -43 -45
-18 -27 -41 -56 -52 -66 -18 -16 -20 -14 -57 42 -21 32 -46 59 -55 61 -15 3
-18 -9 -20 -90 l-3 -93 -34 -3 c-31 -3 -33 -2 -27 20 3 13 6 92 6 176 0 144 1
152 19 152 12 0 43 -27 76 -67z m727 -42 c5 -120 19 -156 63 -167 34 -8 84 14
90 40 3 11 6 68 8 126 2 105 2 105 28 108 l26 3 6 -118 c5 -99 3 -124 -11
-153 -52 -106 -202 -105 -255 2 -16 32 -17 52 -11 152 7 111 8 116 29 116 22
0 23 -4 27 -109z m462 67 c23 -24 56 -60 74 -81 18 -21 38 -37 46 -35 7 2 41
36 75 76 51 59 67 72 91 72 l30 0 0 -63 c0 -35 -3 -112 -7 -170 l-6 -107 -34
0 -33 0 0 90 c0 50 -4 90 -9 90 -5 0 -25 -22 -44 -49 -35 -48 -72 -72 -86 -54
-4 4 -24 29 -45 56 -21 26 -42 45 -47 42 -5 -4 -9 -44 -9 -91 l0 -84 -29 0
c-26 0 -29 4 -35 42 -9 58 4 308 17 308 5 0 28 -19 51 -42z m-1441 10 c10 -37
-1 -41 -90 -35 l-84 6 3 -37 3 -37 67 -3 c61 -3 67 -5 72 -28 11 -41 -1 -47
-75 -41 l-69 6 0 -40 0 -39 59 0 c32 0 73 -3 90 -6 27 -6 32 -11 29 -33 l-3
-26 -120 0 -119 0 -2 135 c0 74 1 150 4 168 l4 32 113 0 c107 0 113 -1 118
-22z m761 -9 c3 -17 6 -94 6 -171 l0 -139 -37 3 -38 3 -3 168 -2 167 34 0 c30
0 34 -4 40 -31z m-2138 -104 c4 -8 1 -22 -6 -30 -11 -13 -90 -15 -609 -13
-559 3 -596 4 -599 21 -2 11 5 21 20 26 13 6 271 10 606 10 511 1 583 -1 588
-14z m4596 -9 c4 -6 6 -15 5 -21 -4 -10 -759 -27 -1021 -22 -122 2 -140 4
-150 20 -9 15 -7 21 9 33 17 13 93 14 585 8 393 -5 567 -10 572 -18z"/>
<path d="M1226 1700 c-3 -22 -26 -91 -50 -152 -24 -62 -46 -125 -50 -140 l-6
-28 130 0 c143 0 143 0 116 62 -8 18 -29 71 -46 118 -49 128 -72 180 -80 180
-4 0 -10 -18 -14 -40z"/>
<path d="M3291 1698 c-5 -13 -16 -41 -26 -63 -36 -85 -85 -236 -80 -245 4 -6
60 -10 126 -10 101 0 119 2 119 15 0 9 -20 66 -44 128 -25 62 -50 131 -56 155
-12 47 -26 54 -39 20z"/>
<path d="M290 1681 c0 -225 -5 -211 83 -211 133 0 217 67 233 184 18 130 -92
226 -258 226 l-58 0 0 -199z"/>
<path d="M1680 686 c0 -62 12 -72 74 -60 46 8 59 25 51 64 -8 35 -35 50 -91
50 l-34 0 0 -54z"/>
<path d="M2092 689 l3 -54 48 -3 c56 -4 77 9 77 47 0 42 -13 52 -74 58 l-57 6
3 -54z"/>
<path d="M2770 6989 c-310 -21 -588 -97 -880 -240 -153 -74 -239 -131 -414
-272 -248 -200 -433 -429 -594 -737 -114 -217 -191 -435 -228 -639 -39 -219
-38 -598 1 -824 35 -196 130 -467 232 -657 139 -259 342 -514 548 -687 90 -76
279 -210 345 -243 14 -7 27 -16 30 -20 8 -11 226 -115 315 -150 81 -32 168
-61 240 -79 22 -6 65 -17 95 -26 79 -22 222 -45 320 -51 47 -2 105 -7 130 -11
25 -3 48 -6 51 -5 4 1 73 6 155 12 285 20 551 79 759 169 28 12 68 30 90 39
113 47 309 159 385 218 238 188 398 351 551 564 182 254 336 602 383 870 69
387 57 750 -35 1077 -93 331 -240 616 -455 881 -227 278 -574 529 -922 666
-95 37 -302 97 -402 116 -182 35 -453 46 -700 29z m656 -547 c8 -5 13 -112 16
-344 4 -252 8 -341 18 -353 10 -12 42 -15 179 -15 91 0 264 -3 383 -7 l217 -6
0 -468 c0 -360 -2 -468 -12 -472 -6 -2 -186 -3 -399 -1 l-388 3 0 -430 0 -429
-409 0 c-225 0 -415 2 -423 5 -11 4 -12 83 -9 430 l3 425 -401 -2 -401 -3 0
472 0 472 378 3 c289 2 383 6 394 16 13 11 16 62 20 350 2 185 7 343 11 350 6
9 99 12 410 12 221 0 407 -4 413 -8z m-2266 -683 c25 -11 65 -23 90 -26 41 -5
48 -2 78 28 l32 33 41 -30 c23 -16 49 -39 57 -52 14 -21 13 -24 -26 -60 -54
-50 -66 -82 -53 -144 16 -72 44 -125 115 -214 45 -55 78 -86 105 -99 l41 -18
0 -81 c0 -45 -3 -131 -6 -191 l-7 -111 -27 28 c-36 35 -76 45 -109 27 -38 -21
-37 -50 3 -100 62 -77 88 -118 82 -128 -8 -12 -87 -38 -143 -47 -35 -5 -51 -1
-115 33 -65 35 -528 301 -536 308 -2 1 4 47 13 101 29 183 110 416 229 665 25
53 46 105 46 114 0 16 2 16 23 1 12 -9 42 -26 67 -37z m1269 -1297 c-1 -81 -4
-159 -8 -174 -6 -27 -8 -25 -61 47 -63 87 -90 96 -170 55 -56 -28 -113 -34
-154 -15 -19 9 -81 65 -138 123 l-103 107 310 5 c171 3 313 4 318 2 4 -2 6
-69 6 -150z m1363 120 c9 -15 49 -60 89 -99 81 -80 84 -92 28 -152 -25 -28
-39 -35 -66 -34 -44 1 -50 -14 -27 -77 l18 -49 -27 -66 c-25 -60 -27 -77 -27
-199 0 -103 -3 -135 -13 -139 -8 -3 -26 -31 -41 -63 -25 -53 -27 -62 -16 -99
15 -49 91 -201 137 -275 73 -116 190 -210 279 -225 35 -5 47 -2 90 27 134 91
169 120 190 161 23 42 59 36 145 -25 40 -29 80 -65 88 -80 14 -24 14 -28 -2
-46 -9 -10 -35 -25 -57 -32 -37 -12 -40 -11 -71 15 -68 56 -73 55 -167 -37
-113 -112 -126 -131 -111 -160 7 -12 15 -37 19 -55 8 -31 7 -32 -41 -48 -27
-9 -51 -21 -54 -26 -4 -5 -21 -9 -39 -9 -44 0 -143 75 -227 172 -90 103 -178
186 -221 208 -20 11 -39 24 -43 30 -3 5 -13 10 -21 10 -12 0 -10 -8 7 -42 12
-24 30 -56 41 -71 47 -66 -30 -78 -140 -23 -37 19 -88 39 -112 46 -91 24 -215
106 -254 169 -33 52 -36 73 -24 170 10 84 10 88 -17 140 -14 30 -47 76 -72
102 l-46 49 235 0 c227 0 236 1 279 23 29 16 54 40 74 72 l30 48 3 359 3 358
82 0 c80 0 83 -1 99 -28z m-1882 -322 c141 -74 160 -69 -266 -70 -209 0 -475
-3 -591 -7 l-210 -6 -6 41 c-4 22 -10 48 -14 58 -6 16 11 17 288 13 242 -4
624 1 702 9 11 1 54 -16 97 -38z m3217 16 c-3 -8 -11 -34 -17 -57 l-11 -42
-46 7 c-25 3 -257 6 -515 6 l-468 0 15 37 c28 68 -11 63 542 63 435 0 504 -2
500 -14z m-2810 -241 c13 -22 23 -43 23 -47 0 -15 -131 -18 -762 -21 l-658 -2
-11 30 c-6 17 -15 38 -20 48 -5 9 -8 18 -7 19 3 1 1299 15 1368 14 41 -1 46
-4 67 -41z m2763 23 c0 -5 -10 -27 -22 -49 l-23 -40 -517 3 c-284 2 -519 6
-522 9 -9 8 12 71 26 81 17 11 1058 7 1058 -4z m-2630 -261 l29 -46 -42 -6
c-23 -3 -351 -6 -728 -8 l-686 -2 -26 48 c-13 26 -24 48 -23 49 2 4 871 13
1159 12 l288 -1 29 -46z m2540 39 c0 -5 -11 -29 -25 -53 l-26 -43 -487 2 -487
3 3 30 c7 62 14 64 236 67 414 6 786 3 786 -6z m-2204 -253 c46 -47 46 -47 22
-57 -14 -6 -339 -10 -839 -12 l-815 -3 -19 37 c-10 20 -25 45 -33 54 -13 16
30 17 718 17 403 0 735 2 738 5 3 4 45 6 94 6 l89 0 45 -47z m2068 10 c-3 -16
-14 -39 -24 -53 l-17 -25 -414 0 c-444 0 -449 1 -449 50 0 29 17 43 60 47 19
2 218 4 443 6 l408 3 -7 -28z m-1921 -251 l30 -54 -822 3 c-451 2 -821 6 -821
9 0 3 -14 21 -30 40 -16 19 -30 38 -30 42 0 7 719 14 1394 13 l249 0 30 -53z
m1347 37 c-19 -12 -37 -25 -40 -29 -11 -15 -71 -40 -82 -34 -6 4 -8 3 -4 -4 3
-6 -3 -14 -15 -17 -17 -6 -30 3 -64 41 -24 27 -41 52 -39 56 3 4 67 8 142 8
l137 0 -35 -21z m-1223 -251 l33 -48 -402 -1 c-222 -1 -569 -4 -773 -8 l-370
-7 -35 32 c-19 17 -46 37 -59 44 -14 7 -19 16 -14 21 8 8 721 15 1397 14 l189
0 34 -47z m298 -194 c20 -16 52 -39 72 -50 l35 -22 -744 -7 c-410 -4 -776 -5
-814 -3 -57 4 -81 11 -137 42 -51 29 -65 42 -57 50 8 8 226 13 753 17 926 7
847 10 892 -27z m428 -195 c12 -6 30 -19 40 -27 17 -15 13 -18 -65 -44 -46
-15 -94 -26 -108 -23 -14 3 -32 0 -40 -5 -11 -8 -7 -9 15 -4 20 4 27 3 20 -3
-5 -6 -28 -13 -50 -16 -22 -3 -34 -3 -27 0 27 10 11 24 -20 18 -36 -8 -29 10
7 18 11 3 0 3 -25 1 -25 -3 -47 -9 -49 -15 -2 -7 -106 -8 -335 -3 -276 5 -359
4 -501 -11 -93 -9 -183 -17 -200 -18 -33 -1 -389 113 -380 122 3 3 353 7 778
9 424 2 774 5 776 8 9 9 144 3 164 -7z m-1178 -163 c33 -8 49 -14 35 -15 -14
0 -47 6 -75 13 -65 18 -38 19 40 2z"/>
<path d="M2914 6218 c-64 -43 -86 -86 -81 -160 4 -69 39 -127 91 -152 l36 -17
-6 -152 c-3 -84 -2 -223 3 -310 6 -128 6 -157 -5 -157 -32 0 -165 52 -214 84
-72 46 -82 59 -75 101 13 82 89 150 199 181 l58 17 0 44 c0 31 -5 45 -16 50
-29 11 -137 -16 -211 -52 -108 -53 -163 -132 -171 -247 -5 -78 12 -115 81
-170 54 -43 75 -53 167 -82 69 -22 73 -25 50 -34 -76 -30 -170 -163 -170 -240
0 -84 90 -191 191 -226 30 -10 67 -26 83 -33 l29 -15 -39 -17 c-52 -24 -111
-91 -120 -136 -4 -21 -2 -54 5 -75 13 -45 75 -131 111 -155 21 -14 29 -31 38
-84 8 -46 17 -71 33 -83 51 -42 91 -7 97 86 l4 63 53 31 c81 49 135 132 135
207 0 51 -31 113 -81 163 l-43 42 33 0 c64 0 166 73 200 143 27 57 28 144 2
195 -24 47 -94 114 -145 139 l-39 20 109 43 c181 73 253 164 225 285 -17 72
-54 119 -138 175 -77 51 -116 67 -196 77 -58 7 -67 -1 -67 -68 l0 -47 74 -17
c76 -16 153 -63 176 -105 26 -50 0 -124 -59 -168 -37 -27 -211 -112 -230 -112
-8 0 -11 6 -7 16 3 9 6 154 6 322 l1 307 32 20 c39 25 86 115 87 168 0 45 -18
82 -57 118 -43 40 -66 49 -131 49 -51 0 -67 -5 -108 -32z m160 -104 c24 -23
19 -62 -10 -89 -33 -30 -53 -31 -88 -4 -28 22 -36 75 -14 97 18 18 94 15 112
-4z m68 -1023 c24 -10 62 -39 86 -64 48 -53 54 -90 22 -142 -19 -30 -89 -85
-108 -85 -5 0 -22 -12 -37 -27 l-28 -28 6 34 c4 18 7 100 7 182 0 82 2 149 4
149 2 0 24 -8 48 -19z m-182 -151 l0 -160 -25 10 c-82 31 -145 92 -145 138 1
60 99 172 151 172 18 0 19 -9 19 -160z m153 -399 c25 -43 21 -81 -14 -129 -17
-23 -32 -42 -34 -42 -2 0 -2 15 0 33 3 17 7 62 11 100 3 37 9 67 13 67 4 0 14
-13 24 -29z m-144 -121 l1 -45 -27 28 c-35 35 -39 103 -8 137 l20 22 7 -48 c3
-27 7 -69 7 -94z"/>
<path d="M2573 2723 c9 -2 23 -2 30 0 6 3 -1 5 -18 5 -16 0 -22 -2 -12 -5z"/>
<path d="M3498 2713 c7 -3 16 -2 19 1 4 3 -2 6 -13 5 -11 0 -14 -3 -6 -6z"/>
<path d="M2338 2693 c12 -2 32 -2 45 0 12 2 2 4 -23 4 -25 0 -35 -2 -22 -4z"/>
<path d="M2440 2680 c0 -13 11 -13 30 0 12 8 11 10 -7 10 -13 0 -23 -4 -23
-10z"/>
<path d="M2398 2673 c7 -3 16 -2 19 1 4 3 -2 6 -13 5 -11 0 -14 -3 -6 -6z"/>
<path d="M2465 2650 c3 -5 8 -10 11 -10 2 0 4 5 4 10 0 6 -5 10 -11 10 -5 0
-7 -4 -4 -10z"/>
<path d="M2425 2630 c3 -5 13 -10 21 -10 8 0 12 5 9 10 -3 6 -13 10 -21 10 -8
0 -12 -4 -9 -10z"/>
<path d="M1400 2783 c0 -5 13 -17 28 -27 l27 -19 -24 26 c-26 28 -31 32 -31
20z"/>
<path d="M1490 2726 c0 -2 7 -9 15 -16 9 -7 15 -8 15 -2 0 5 -7 12 -15 16 -8
3 -15 4 -15 2z"/>
<path d="M1550 2676 c0 -2 7 -7 16 -10 8 -3 12 -2 9 4 -6 10 -25 14 -25 6z"/>
<path d="M1596 2647 c3 -10 9 -15 12 -12 3 3 0 11 -7 18 -10 9 -11 8 -5 -6z"/>
<path d="M1625 2630 c3 -5 10 -10 16 -10 5 0 9 5 9 10 0 6 -7 10 -16 10 -8 0
-12 -4 -9 -10z"/>
<path d="M1668 2614 c-10 -10 11 -34 29 -34 7 0 27 -10 42 -21 16 -12 35 -19
42 -17 13 4 -68 48 -88 48 -7 0 -13 7 -15 16 -2 9 -6 12 -10 8z"/>
<path d="M1825 2571 c-3 -5 -1 -12 5 -16 5 -3 10 1 10 9 0 18 -6 21 -15 7z"/>
<path d="M1895 2480 c-3 -5 -2 -10 4 -10 5 0 13 5 16 10 3 6 2 10 -4 10 -5 0
-13 -4 -16 -10z"/>
<path d="M2046 2423 c-17 -4 -14 -8 14 -19 18 -8 35 -12 38 -9 3 3 0 5 -6 5
-6 0 -9 7 -6 15 6 15 -4 17 -40 8z"/>
<path d="M2318 2313 c7 -3 16 -2 19 1 4 3 -2 6 -13 5 -11 0 -14 -3 -6 -6z"/>
<path d="M2550 2270 c-13 -8 -12 -10 3 -10 9 0 17 5 17 10 0 12 -1 12 -20 0z"/>
<path d="M2590 2256 c0 -2 13 -6 29 -8 17 -2 28 -1 25 4 -5 8 -54 12 -54 4z"/>
<path d="M2698 2253 c6 -2 18 -2 25 0 6 3 1 5 -13 5 -14 0 -19 -2 -12 -5z"/>
<path d="M3208 2253 c6 -2 18 -2 25 0 6 3 1 5 -13 5 -14 0 -19 -2 -12 -5z"/>
<path d="M3338 2243 c6 -2 18 -2 25 0 6 3 1 5 -13 5 -14 0 -19 -2 -12 -5z"/>
<path d="M2768 2233 c7 -3 16 -2 19 1 4 3 -2 6 -13 5 -11 0 -14 -3 -6 -6z"/>
<path d="M5461 1653 c-13 -38 -39 -105 -57 -151 -52 -128 -57 -122 91 -122
102 0 125 3 125 14 0 8 -13 50 -29 93 -16 43 -42 113 -57 155 -16 43 -34 78
-39 78 -6 0 -21 -30 -34 -67z"/>
</g>
</svg>
